<?xml version="1.0" encoding="UTF-8"?>
<svg width="50px" height="50px" viewBox="0 0 50 50" version="1.1" xmlns="http://www.w3.org/2000/svg" xmlns:xlink="http://www.w3.org/1999/xlink">
    <title>Artboard</title>
    <g id="Artboard" stroke="none" stroke-width="1" fill="none" fill-rule="evenodd">
        <rect fill="#FBF1EA" x="0" y="0" width="50" height="50"></rect>
        <g id="M" transform="translate(10.000000, 10.000000)" fill="#4F4B47" fill-rule="nonzero">
            <path d="M0,30.2439024 C0.111355645,28.7970783 0.188598821,27.5162411 0.231729529,26.401391 C0.274860236,25.2865409 0.29642559,24.0817073 0.29642559,22.7868902 L0.29642559,7.4570122 C0.29642559,6.16219512 0.274860236,4.95736153 0.231729529,3.84251143 C0.188598821,2.72766133 0.111355645,1.44682419 0,0 L4.14525309,0 L15.9258177,25.9766768 L27.141174,0 L31,0 C30.8886444,1.44682419 30.8114012,2.72766133 30.7682705,3.84251143 C30.7251398,4.95736153 30.7035744,6.16219512 30.7035744,7.4570122 L30.7035744,22.7868902 C30.7035744,24.0817073 30.7251398,25.2865409 30.7682705,26.401391 C30.8114012,27.5162411 30.8886444,28.7970783 31,30.2439024 L26.7065341,30.2439024 C26.8178898,28.7970783 26.8951329,27.5162411 26.9382636,26.401391 C26.9813943,25.2865409 27.0029597,24.0817073 27.0029597,22.7868902 L27.0029597,1.81463415 L14.6230743,31 L13.9214161,31 L0.88927677,1.92804878 L0.88927677,22.7868902 C0.88927677,24.0817073 0.910842124,25.2865409 0.953972831,26.401391 C0.997103539,27.5162411 1.07434672,28.7970783 1.18570236,30.2439024 L0,30.2439024 Z" id="Path"></path>
        </g>
    </g>
</svg>