<?xml version="1.0" encoding="UTF-8"?>
<svg width="1100px" height="191px" viewBox="0 0 1100 191" version="1.1" xmlns="http://www.w3.org/2000/svg" xmlns:xlink="http://www.w3.org/1999/xlink">
    <title>Mémoires</title>
    <g id="Page-1" stroke="none" stroke-width="1" fill="none" fill-rule="evenodd">
        <g id="Home" transform="translate(-160.000000, -21.000000)" fill="#4F4B47" fill-rule="nonzero">
            <g id="Mémoires" transform="translate(160.600000, 21.886309)">
                <path d="M0,186.12 C0.5325,179.23125 0.901875,173.132812 1.108125,167.824687 C1.314375,162.516562 1.4175,156.78 1.4175,150.615 L1.4175,77.625 C1.4175,71.46 1.314375,65.7234375 1.108125,60.4153125 C0.901875,55.1071875 0.5325,49.00875 0,42.12 L19.8225,42.12 L76.156875,165.8025 L129.788437,42.12 L148.24125,42.12 C147.70875,49.00875 147.339375,55.1071875 147.133125,60.4153125 C146.926875,65.7234375 146.82375,71.46 146.82375,77.625 L146.82375,150.615 C146.82375,156.78 146.926875,162.516562 147.133125,167.824687 C147.339375,173.132812 147.70875,179.23125 148.24125,186.12 L127.71,186.12 C128.2425,179.23125 128.611875,173.132812 128.818125,167.824687 C129.024375,162.516562 129.1275,156.78 129.1275,150.615 L129.1275,50.76 L69.9271875,189.72 L66.571875,189.72 L4.2525,51.3 L4.2525,150.615 C4.2525,156.78 4.355625,162.516562 4.561875,167.824687 C4.768125,173.132812 5.1375,179.23125 5.67,186.12 L0,186.12 Z M270.695698,42.12 L262.595698,52.2 C255.875698,49.44 248.765698,47.55 241.265698,46.53 C233.765698,45.51 227.195698,45 221.555698,45 L205.175698,45 L205.175698,108.36 L216.695698,108.36 C223.055698,108.36 228.785698,108.27 233.885698,108.09 C238.985698,107.91 245.255698,107.4 252.695698,106.56 L252.695698,113.04 C245.255698,112.2 238.985698,111.69 233.885698,111.51 C228.785698,111.33 223.055698,111.24 216.695698,111.24 L205.175698,111.24 L205.175698,183.24 L225.335698,183.24 C231.695698,183.24 237.335698,183.09 242.255698,182.79 C247.175698,182.49 252.305698,181.83 257.645698,180.81 C262.985698,179.79 268.955698,178.32 275.555698,176.4 L270.335698,186.12 L185.735698,186.12 C186.455698,178.92 186.905698,172.74 187.085698,167.58 C187.265698,162.42 187.355698,156.78 187.355698,150.66 L187.355698,77.58 C187.355698,71.46 187.265698,65.82 187.085698,60.66 C186.905698,55.5 186.455698,49.32 185.735698,42.12 L270.695698,42.12 Z M210.935698,28.26 L240.995698,0 C243.275698,0.24 244.865698,1.05 245.765698,2.43 C246.665698,3.81 246.995698,5.34 246.755698,7.02 C246.515698,8.7 245.795698,10.14 244.595698,11.34 C243.155698,12.78 241.565698,14.07 239.825698,15.21 C238.085698,16.35 235.955698,17.4 233.435698,18.36 C230.075698,19.8 226.715698,21.36 223.355698,23.04 C219.995698,24.72 216.215698,26.82 212.015698,29.34 L210.935698,28.26 Z M307.573154,186.12 C308.105654,179.23125 308.475029,173.132812 308.681279,167.824687 C308.887529,162.516562 308.990654,156.78 308.990654,150.615 L308.990654,77.625 C308.990654,71.46 308.887529,65.7234375 308.681279,60.4153125 C308.475029,55.1071875 308.105654,49.00875 307.573154,42.12 L327.395654,42.12 L383.730029,165.8025 L437.361592,42.12 L455.814404,42.12 C455.281904,49.00875 454.912529,55.1071875 454.706279,60.4153125 C454.500029,65.7234375 454.396904,71.46 454.396904,77.625 L454.396904,150.615 C454.396904,156.78 454.500029,162.516562 454.706279,167.824687 C454.912529,173.132812 455.281904,179.23125 455.814404,186.12 L435.283154,186.12 C435.815654,179.23125 436.185029,173.132812 436.391279,167.824687 C436.597529,162.516562 436.700654,156.78 436.700654,150.615 L436.700654,50.76 L377.500342,189.72 L374.145029,189.72 L311.825654,51.3 L311.825654,150.615 C311.825654,156.78 311.928779,162.516562 312.135029,167.824687 C312.341279,173.132812 312.710654,179.23125 313.243154,186.12 L307.573154,186.12 Z M571.507646,189.72 C556.192646,189.72 542.421709,186.494062 530.194834,180.042187 C517.967959,173.590312 508.377334,164.630156 501.422959,153.161719 C494.468584,141.693281 490.991396,128.679375 490.991396,114.12 C490.991396,99.59625 494.468584,86.6001562 501.422959,75.1317187 C508.377334,63.6632812 517.989521,54.6942187 530.259521,48.2245312 C542.529521,41.7548437 556.278896,38.52 571.507646,38.52 C586.736396,38.52 600.455771,41.7548437 612.665771,48.2245312 C624.875771,54.6942187 634.487959,63.684375 641.502334,75.195 C648.516709,86.705625 652.023896,99.680625 652.023896,114.12 C652.023896,128.679375 648.516709,141.693281 641.502334,153.161719 C634.487959,164.630156 624.875771,173.590312 612.665771,180.042187 C600.455771,186.494062 586.736396,189.72 571.507646,189.72 Z M571.507646,186.885 C583.723271,186.885 594.476865,183.538594 603.768428,176.845781 C613.05999,170.152969 620.196709,161.265937 625.178584,150.184687 C630.160459,139.103437 632.651396,127.081875 632.651396,114.12 C632.651396,101.244375 630.160459,89.2659375 625.178584,78.1846875 C620.196709,67.1034375 613.05999,58.1948437 603.768428,51.4589062 C594.476865,44.7229687 583.723271,41.355 571.507646,41.355 C559.205771,41.355 548.422178,44.7014062 539.156865,51.3942187 C529.891553,58.0870312 522.776396,66.995625 517.811396,78.12 C512.846396,89.244375 510.363896,101.244375 510.363896,114.12 C510.363896,127.115625 512.846396,139.145625 517.811396,150.21 C522.776396,161.274375 529.891553,170.152969 539.156865,176.845781 C548.422178,183.538594 559.205771,186.885 571.507646,186.885 Z M706.440168,42.12 C705.907668,49.00875 705.538293,55.1071875 705.332043,60.4153125 C705.125793,65.7234375 705.022668,71.46 705.022668,77.625 L705.022668,150.615 C705.022668,156.78 705.125793,162.516562 705.332043,167.824687 C705.538293,173.132812 705.907668,179.23125 706.440168,186.12 L685.908918,186.12 C686.441418,179.23125 686.810793,173.132812 687.017043,167.824687 C687.223293,162.516562 687.326418,156.78 687.326418,150.615 L687.326418,77.625 C687.326418,71.46 687.223293,65.7234375 687.017043,60.4153125 C686.810793,55.1071875 686.441418,49.00875 685.908918,42.12 L706.440168,42.12 Z M827.098967,151.846875 C830.269592,160.156875 833.375999,166.561406 836.418186,171.060469 C839.460374,175.559531 842.922561,178.756406 846.804749,180.651094 C850.686936,182.545781 855.490217,183.493125 861.214592,183.493125 L861.214592,186.12 L860.157092,186.12 C849.580217,186.12 841.248655,185.118281 835.162405,183.114844 C829.076155,181.111406 823.985061,177.838594 819.889124,173.296406 C815.793186,168.754219 812.202092,162.075937 809.115842,153.261562 C805.772717,143.639062 802.26928,136.484062 798.60553,131.796562 C794.94178,127.109062 790.819592,123.891094 786.238967,122.142656 C781.658342,120.394219 776.036155,119.52 769.372405,119.52 L769.372405,117.46125 C778.68928,117.46125 786.814124,118.284375 793.746936,119.930625 C800.679749,121.576875 807.036936,124.907812 812.818499,129.923437 C818.600061,134.939062 823.360217,142.246875 827.098967,151.846875 Z M743.846155,186.12 C744.378655,179.23125 744.74803,173.132812 744.95428,167.824687 C745.16053,162.516562 745.263655,156.78 745.263655,150.615 L745.263655,77.625 C745.263655,71.46 745.16053,65.7234375 744.95428,60.4153125 C744.74803,55.1071875 744.378655,49.00875 743.846155,42.12 L777.089905,42.12 C788.94178,42.12 799.250061,43.2384375 808.014749,45.4753125 C816.779436,47.7121875 823.811624,51.680625 829.111311,57.380625 C834.410999,63.080625 837.060842,70.89375 837.060842,80.82 C837.060842,90.74625 834.410999,98.559375 829.111311,104.259375 C823.811624,109.959375 816.779436,113.927812 808.014749,116.164687 C799.250061,118.401562 788.94178,119.52 777.089905,119.52 L762.959905,119.52 L762.959905,150.615 C762.959905,156.78 763.06303,162.516562 763.26928,167.824687 C763.47553,173.132812 763.844905,179.23125 764.377405,186.12 L743.846155,186.12 Z M776.88178,116.685 C789.179905,116.685 799.228499,114.002812 807.027561,108.638437 C814.826624,103.274062 818.726155,94.00125 818.726155,80.82 C818.726155,67.63875 814.826624,58.3659375 807.027561,53.0015625 C799.228499,47.6371875 789.179905,44.955 776.88178,44.955 L762.959905,44.955 L762.959905,116.685 L776.88178,116.685 Z M976.288667,42.12 L968.301167,52.1775 C961.530542,49.374375 954.410229,47.4698437 946.940229,46.4639062 C939.470229,45.4579687 932.888042,44.955 927.193667,44.955 L910.768667,44.955 L910.768667,108.36 L922.378667,108.36 C928.738667,108.36 934.468667,108.27 939.568667,108.09 C944.668667,107.91 950.938667,107.4 958.378667,106.56 L958.378667,112.995 C950.938667,112.155 944.668667,111.645 939.568667,111.465 C934.468667,111.285 928.738667,111.195 922.378667,111.195 L910.768667,111.195 L910.768667,183.285 L930.925854,183.285 C937.340229,183.285 943.011636,183.126094 947.940073,182.808281 C952.868511,182.490469 957.990542,181.837031 963.306167,180.847969 C968.621792,179.858906 974.584292,178.35 981.193667,176.32125 L976.041167,186.12 L891.398979,186.12 C892.102104,178.974375 892.556792,172.811719 892.763042,167.632031 C892.969292,162.452344 893.072417,156.78 893.072417,150.615 L893.072417,77.625 C893.072417,71.46 892.969292,65.7876562 892.763042,60.6079687 C892.556792,55.4282812 892.102104,49.265625 891.398979,42.12 L976.288667,42.12 Z M1014.31635,136.15875 C1015.53885,146.07 1018.19947,154.854375 1022.29822,162.511875 C1026.39697,170.169375 1031.67744,176.145937 1038.13963,180.441562 C1044.60182,184.737187 1051.73291,186.885 1059.53291,186.885 C1068.13354,186.885 1075.0926,184.534687 1080.4101,179.834062 C1085.7276,175.133437 1088.38635,168.399375 1088.38635,159.631875 C1088.38635,155.075625 1087.03166,150.75 1084.32229,146.655 C1081.61291,142.56 1077.87463,138.494062 1073.10744,134.457187 C1068.34025,130.420312 1061.22979,124.87875 1051.77604,117.8325 L1045.46197,112.699687 L1038.72041,107.710312 C1030.76104,101.605312 1024.79104,96.7040625 1020.81041,93.0065625 C1016.82979,89.3090625 1013.84854,85.4615625 1011.86666,81.4640625 C1009.88479,77.4665625 1008.89385,72.7921875 1008.89385,67.4409375 C1008.89385,61.3171875 1010.42572,56.1023437 1013.48947,51.7964062 C1016.55322,47.4904687 1020.78744,44.20125 1026.19213,41.92875 C1031.59682,39.65625 1037.81666,38.52 1044.85166,38.52 C1055.45291,38.52 1064.7815,41.2673437 1072.83744,46.7620312 C1080.89338,52.2567187 1087.99635,60.586875 1094.14635,71.7525 L1079.70135,77.175 C1078.3926,70.4475 1076.39197,64.468125 1073.69947,59.236875 C1071.00697,54.005625 1067.1965,49.7175 1062.26807,46.3725 C1057.33963,43.0275 1051.24072,41.355 1043.97135,41.355 C1036.34572,41.355 1030.31432,43.1709375 1025.87713,46.8028125 C1021.43994,50.4346875 1019.22135,55.23 1019.22135,61.18875 C1019.22135,65.025 1020.01775,68.4117187 1021.61057,71.3489062 C1023.20338,74.2860937 1025.46557,77.1126562 1028.39713,79.8285937 C1031.32869,82.5445312 1035.78604,86.1215625 1041.76916,90.5596875 C1043.38166,91.6753125 1045.05041,92.8589062 1046.77541,94.1104687 C1048.50041,95.3620312 1050.28072,96.6646875 1052.11635,98.0184375 C1055.09947,100.245937 1057.4751,102.00375 1059.24322,103.291875 C1069.51635,110.919375 1077.25213,117.060937 1082.45057,121.716562 C1087.649,126.372187 1091.65916,131.277187 1094.48104,136.431562 C1097.30291,141.585938 1098.71385,147.405 1098.71385,153.88875 C1098.71385,161.656875 1096.92135,168.220312 1093.33635,173.579062 C1089.75135,178.937812 1084.91432,182.967656 1078.82525,185.668594 C1072.73619,188.369531 1065.94354,189.72 1058.44729,189.72 C1044.92854,189.72 1033.259,186.103594 1023.43869,178.870781 C1013.61838,171.637969 1005.7626,159.725625 999.871348,143.13375 L1014.31635,136.15875 Z" id="Combined-Shape"></path>
            </g>
        </g>
    </g>
</svg>