<?xml version="1.0" encoding="UTF-8"?>
<svg width="6px" height="10px" viewBox="0 0 6 10" version="1.1" xmlns="http://www.w3.org/2000/svg" xmlns:xlink="http://www.w3.org/1999/xlink">
    <title>Vector 474 (Stroke)</title>
    <g id="Page-1" stroke="none" stroke-width="1" fill="none" fill-rule="evenodd" fill-opacity="0.5">
        <g id="Mobile---Menu-expanded" transform="translate(-35.000000, -26.000000)" fill="#000000">
            <g id="chevron_down" transform="translate(37.892323, 30.732040) rotate(90.000000) translate(-37.892323, -30.732040) translate(33.338923, 28.232040)">
                <path d="M0.804118231,0.144791299 L4.44237377,3.96304485 C4.503692,4.0273964 4.60310798,4.02739608 4.66442531,3.96304516 L8.30268144,0.144791234 C8.48663404,-0.0482626808 8.78488137,-0.0482626834 8.96883396,0.144791228 C9.15278715,0.337845119 9.15278715,0.650847344 8.96883396,0.843901239 L5.33057783,4.662155 C4.90135351,5.11261462 4.20544436,5.11261336 3.77622094,4.6621547 L0.137965244,0.843901316 C-0.0459878341,0.650847424 -0.0459878315,0.337845199 0.13796525,0.144791304 C0.321918312,-0.0482626102 0.620165172,-0.0482626127 0.804118231,0.144791299 Z" id="Vector-474-(Stroke)" transform="translate(4.553400, 2.500000) rotate(-0.000010) translate(-4.553400, -2.500000) "></path>
            </g>
        </g>
    </g>
</svg>